<?xml version="1.0" encoding="UTF-8" standalone="no"?>
<!DOCTYPE svg PUBLIC "-//W3C//DTD SVG 1.1//EN" "http://www.w3.org/Graphics/SVG/1.1/DTD/svg11.dtd">
<!-- Generated by Microsoft Visio, SVG Export Absence1.svg Absence1 -->
<svg xmlns="http://www.w3.org/2000/svg" xmlns:xlink="http://www.w3.org/1999/xlink" xmlns:ev="http://www.w3.org/2001/xml-events"
		xmlns:v="http://schemas.microsoft.com/visio/2003/SVGExtensions/" width="8.20938in" height="5.75058in"
		viewBox="0 0 591.075 414.042" xml:space="preserve" color-interpolation-filters="sRGB" class="st7">
	<v:documentProperties v:langID="1033" v:viewMarkup="false">
		<v:userDefs>
			<v:ud v:nameU="msvSubprocessMaster" v:prompt="" v:val="VT4(Rectangle)"/>
			<v:ud v:nameU="msvNoAutoConnect" v:val="VT0(1):26"/>
		</v:userDefs>
	</v:documentProperties>

	<style type="text/css">
	<![CDATA[
		.st1 {fill:#156082;stroke:#0d4964;stroke-width:0.25}
		.st2 {fill:#feffff;font-family:Calibri;font-size:1.00001em}
		.st3 {fill:none;stroke:none;stroke-width:0.25}
		.st4 {stroke:#d8d8d8;stroke-linecap:round;stroke-linejoin:round;stroke-width:1}
		.st5 {fill:#3f3f3f;font-family:Calibri;font-size:4.00001em;font-weight:bold}
		.st6 {fill:#156082;stroke:#0d4964;stroke-linecap:butt;stroke-width:0.25}
		.st7 {fill:none;fill-rule:evenodd;font-size:12px;overflow:visible;stroke-linecap:square;stroke-miterlimit:3}
	]]>
	</style>

	<g v:mID="16" v:index="14" v:groupContext="foregroundPage">
		<v:userDefs>
			<v:ud v:nameU="msvThemeOrder" v:val="VT0(0):26"/>
		</v:userDefs>
		<title>Absence1</title>
		<v:pageProperties v:drawingScale="1" v:pageScale="1" v:drawingUnits="0" v:shadowOffsetX="9" v:shadowOffsetY="-9"/>
		<g id="shape1-1" v:mID="1" v:groupContext="shape" transform="translate(241.538,-206.164)">
			<title>Round Corner Rectangle.35</title>
			<desc>Organization Tab</desc>
			<v:userDefs>
				<v:ud v:nameU="CTypeTopLeftSnip" v:prompt="" v:val="VT0(0):5"/>
				<v:ud v:nameU="CTypeTopRightSnip" v:prompt="" v:val="VT0(0):5"/>
				<v:ud v:nameU="CTypeBotLeftSnip" v:prompt="" v:val="VT0(0):5"/>
				<v:ud v:nameU="CTypeBotRightSnip" v:prompt="" v:val="VT0(0):5"/>
				<v:ud v:nameU="CornerLockHoriz" v:prompt="" v:val="VT0(0):5"/>
				<v:ud v:nameU="CornerLockVert" v:prompt="" v:val="VT0(0):5"/>
				<v:ud v:nameU="CornerLockDiag" v:prompt="" v:val="VT0(0):5"/>
				<v:ud v:nameU="TopLeftOffset" v:prompt="" v:val="VT0(0.15):1"/>
				<v:ud v:nameU="TopRightOffset" v:prompt="" v:val="VT0(0.15):1"/>
				<v:ud v:nameU="BotLeftOffset" v:prompt="" v:val="VT0(0.15):1"/>
				<v:ud v:nameU="BotRightOffset" v:prompt="" v:val="VT0(0.15):1"/>
				<v:ud v:nameU="visVersion" v:prompt="" v:val="VT0(15):26"/>
			</v:userDefs>
			<v:textBlock v:margins="rect(4,4,4,4)"/>
			<v:textRect cx="54" cy="378.042" width="108" height="72"/>
			<path d="M10.8 414.04 L97.2 414.04 A10.7998 10.7998 -180 0 0 108 403.24 L108 352.84 A10.7998 10.7998 -180 0 0 97.2 342.04
						 L10.8 342.04 A10.7998 10.7998 -180 0 0 0 352.84 L0 403.24 A10.7998 10.7998 -180 0 0 10.8 414.04 Z"
					class="st1"/>
			<text x="12.45" y="381.64" class="st2" v:langID="1033"><v:paragraph v:horizAlign="1"/><v:tabList/>Organization Tab</text>		</g>
		<g id="shape2-4" v:mID="2" v:groupContext="shape" transform="translate(241.538,-18.25)">
			<title>Round Corner Rectangle.36</title>
			<desc>Resource Usages</desc>
			<v:userDefs>
				<v:ud v:nameU="CTypeTopLeftSnip" v:prompt="" v:val="VT0(0):5"/>
				<v:ud v:nameU="CTypeTopRightSnip" v:prompt="" v:val="VT0(0):5"/>
				<v:ud v:nameU="CTypeBotLeftSnip" v:prompt="" v:val="VT0(0):5"/>
				<v:ud v:nameU="CTypeBotRightSnip" v:prompt="" v:val="VT0(0):5"/>
				<v:ud v:nameU="CornerLockHoriz" v:prompt="" v:val="VT0(0):5"/>
				<v:ud v:nameU="CornerLockVert" v:prompt="" v:val="VT0(0):5"/>
				<v:ud v:nameU="CornerLockDiag" v:prompt="" v:val="VT0(0):5"/>
				<v:ud v:nameU="TopLeftOffset" v:prompt="" v:val="VT0(0.15):1"/>
				<v:ud v:nameU="TopRightOffset" v:prompt="" v:val="VT0(0.15):1"/>
				<v:ud v:nameU="BotLeftOffset" v:prompt="" v:val="VT0(0.15):1"/>
				<v:ud v:nameU="BotRightOffset" v:prompt="" v:val="VT0(0.15):1"/>
				<v:ud v:nameU="visVersion" v:prompt="" v:val="VT0(15):26"/>
			</v:userDefs>
			<v:textBlock v:margins="rect(4,4,4,4)"/>
			<v:textRect cx="54" cy="378.042" width="108" height="72"/>
			<path d="M10.8 414.04 L97.2 414.04 A10.7998 10.7998 -180 0 0 108 403.24 L108 352.84 A10.7998 10.7998 -180 0 0 97.2 342.04
						 L10.8 342.04 A10.7998 10.7998 -180 0 0 0 352.84 L0 403.24 A10.7998 10.7998 -180 0 0 10.8 414.04 Z"
					class="st1"/>
			<text x="12.9" y="381.64" class="st2" v:langID="1033"><v:paragraph v:horizAlign="1"/><v:tabList/>Resource Usages</text>		</g>
		<g id="group3-7" transform="translate(18.5,-305.138)" v:mID="3" v:groupContext="group">
			<v:userDefs>
				<v:ud v:nameU="visVersion" v:prompt="" v:val="VT0(17):26"/>
			</v:userDefs>
			<title>Title and Sub-Title Block 4.38</title>
			<g id="shape4-8" v:mID="4" v:groupContext="shape" transform="translate(273.038,5.68434E-14)">
				<title>Sheet.4</title>
				<rect x="0" y="389.242" width="8" height="24.8" class="st3"/>
			</g>
			<g id="shape5-10" v:mID="5" v:groupContext="shape" transform="translate(0,-90.4037)">
				<title>Sheet.5</title>
				<v:userDefs>
					<v:ud v:nameU="Width" v:prompt="" v:val="VT0(2.9004906409197):1"/>
					<v:ud v:nameU="Width" v:prompt="" v:val="VT0(7.695488809865):1"/>
				</v:userDefs>
				<path d="M0 414.04 L554.08 414.04" class="st4"/>
			</g>
			<g id="shape6-13" v:mID="6" v:groupContext="shape">
				<title>Sheet.6</title>
				<path d="M0 414.04 L554.08 414.04" class="st4"/>
			</g>
			<g id="shape7-16" v:mID="7" v:groupContext="shape" transform="translate(0,-23.8)">
				<title>Sheet.7</title>
				<desc>How to Record an Absence</desc>
				<v:textBlock v:margins="rect(4,4,4,4)"/>
				<v:textRect cx="277.038" cy="381.24" width="554.08" height="65.6037"/>
				<rect x="0" y="348.438" width="554.075" height="65.6037" class="st3"/>
				<text x="9.43" y="395.64" class="st5" v:langID="1033"><v:paragraph v:horizAlign="1"/><v:tabList/>How to Record an Absence</text>			</g>
		</g>
		<g id="group8-19" transform="translate(681.846,239.925) rotate(90.7021)" v:mID="8" v:groupContext="group">
			<v:userDefs>
				<v:ud v:nameU="Monoline" v:prompt="" v:val="VT0(0):5"/>
				<v:ud v:nameU="msvDisableCustomConnectionPoints" v:prompt="" v:val="VT0(1):5"/>
			</v:userDefs>
			<title>Circle with right arrow.43</title>
			<g id="shape9-20" v:mID="9" v:groupContext="shape" transform="translate(57.6,5.68434E-14) scale(-1,1)">
				<title>Sheet.9</title>
				<v:userDefs>
					<v:ud v:nameU="msvDisableCustomConnectionPoints" v:prompt="" v:val="VT0(1):5"/>
				</v:userDefs>
				<path d="M4.24 387.21 A22.5979 22.5979 0 1 1 26.84 409.8 A22.5979 22.5979 0 0 1 4.24 387.21 ZM0 387.21 A26.835 26.835
							 -180 1 0 26.84 360.37 A26.835 26.835 -180 0 0 -0 387.21 ZM43.08 387.21 A2.11856 2.11856 -180 0 0 40.96
							 385.09 L17.82 385.09 L24.1 378.82 A2.11856 2.11856 -180 0 0 21.1 375.82 L11.21 385.71 A2.11856 2.11856
							 -180 0 0 11.21 388.7 L21.1 398.59 A2.11856 2.11856 -180 0 0 24.1 395.6 L17.82 389.33 L40.96 389.33 A2.11856
							 2.11856 -180 0 0 43.08 387.21 Z" class="st6"/>
			</g>
			<g id="shape10-22" v:mID="10" v:groupContext="shape" transform="translate(-2.8777E-13,-2.11856)">
				<title>Sheet.10</title>
				<v:userDefs>
					<v:ud v:nameU="msvDisableCustomConnectionPoints" v:prompt="" v:val="VT0(1):5"/>
				</v:userDefs>
			</g>
		</g>
	</g>
</svg>
