<?xml version="1.0" encoding="UTF-8" standalone="no"?>
<!DOCTYPE svg PUBLIC "-//W3C//DTD SVG 1.1//EN" "http://www.w3.org/Graphics/SVG/1.1/DTD/svg11.dtd">
<!-- Generated by Microsoft Visio, SVG Export CC1.svg CC1 -->
<svg xmlns="http://www.w3.org/2000/svg" xmlns:xlink="http://www.w3.org/1999/xlink" xmlns:ev="http://www.w3.org/2001/xml-events"
		xmlns:v="http://schemas.microsoft.com/visio/2003/SVGExtensions/" width="7.07343in" height="5.75099in"
		viewBox="0 0 509.287 414.071" xml:space="preserve" color-interpolation-filters="sRGB" class="st12">
	<v:documentProperties v:langID="1033" v:viewMarkup="false">
		<v:userDefs>
			<v:ud v:nameU="msvSubprocessMaster" v:prompt="" v:val="VT4(Rectangle)"/>
			<v:ud v:nameU="msvNoAutoConnect" v:val="VT0(1):26"/>
		</v:userDefs>
	</v:documentProperties>

	<style type="text/css">
	<![CDATA[
		.st1 {fill:#156082;stroke:#0d4964;stroke-width:0.25}
		.st2 {fill:#feffff;font-family:Calibri;font-size:1.00001em}
		.st3 {stroke:#156082;stroke-linecap:round;stroke-linejoin:round;stroke-width:1}
		.st4 {fill:#ffffff;stroke:none;stroke-linecap:butt}
		.st5 {fill:#156082;font-family:Calibri;font-size:1.00001em}
		.st6 {font-size:1em}
		.st7 {fill:none;stroke:none;stroke-width:0.25}
		.st8 {fill:#3f3f3f;font-family:Calibri;font-size:1.16666em}
		.st9 {stroke:#d8d8d8;stroke-linecap:round;stroke-linejoin:round;stroke-width:1}
		.st10 {fill:#3f3f3f;font-family:Calibri;font-size:4.00001em;font-weight:bold}
		.st11 {fill:#156082;stroke:#0d4964;stroke-linecap:butt;stroke-width:0.25}
		.st12 {fill:none;fill-rule:evenodd;font-size:12px;overflow:visible;stroke-linecap:square;stroke-miterlimit:3}
	]]>
	</style>

	<g v:mID="4" v:index="2" v:groupContext="foregroundPage">
		<v:userDefs>
			<v:ud v:nameU="msvThemeOrder" v:val="VT0(0):26"/>
		</v:userDefs>
		<title>CC1</title>
		<v:pageProperties v:drawingScale="1" v:pageScale="1" v:drawingUnits="0" v:shadowOffsetX="9" v:shadowOffsetY="-9"/>
		<g id="shape1-1" v:mID="1" v:groupContext="shape" transform="translate(189.787,-206.164)">
			<title>Round Corner Rectangle</title>
			<desc>Administration Tab</desc>
			<v:userDefs>
				<v:ud v:nameU="CTypeTopLeftSnip" v:prompt="" v:val="VT0(0):5"/>
				<v:ud v:nameU="CTypeTopRightSnip" v:prompt="" v:val="VT0(0):5"/>
				<v:ud v:nameU="CTypeBotLeftSnip" v:prompt="" v:val="VT0(0):5"/>
				<v:ud v:nameU="CTypeBotRightSnip" v:prompt="" v:val="VT0(0):5"/>
				<v:ud v:nameU="CornerLockHoriz" v:prompt="" v:val="VT0(0):5"/>
				<v:ud v:nameU="CornerLockVert" v:prompt="" v:val="VT0(0):5"/>
				<v:ud v:nameU="CornerLockDiag" v:prompt="" v:val="VT0(0):5"/>
				<v:ud v:nameU="TopLeftOffset" v:prompt="" v:val="VT0(0.15):1"/>
				<v:ud v:nameU="TopRightOffset" v:prompt="" v:val="VT0(0.15):1"/>
				<v:ud v:nameU="BotLeftOffset" v:prompt="" v:val="VT0(0.15):1"/>
				<v:ud v:nameU="BotRightOffset" v:prompt="" v:val="VT0(0.15):1"/>
				<v:ud v:nameU="visVersion" v:prompt="" v:val="VT0(15):26"/>
			</v:userDefs>
			<v:textBlock v:margins="rect(4,4,4,4)"/>
			<v:textRect cx="54" cy="378.071" width="108" height="72"/>
			<path d="M10.8 414.07 L97.2 414.07 A10.7998 10.7998 -180 0 0 108 403.27 L108 352.87 A10.7998 10.7998 -180 0 0 97.2 342.07
						 L10.8 342.07 A10.7998 10.7998 -180 0 0 0 352.87 L0 403.27 A10.7998 10.7998 -180 0 0 10.8 414.07 Z"
					class="st1"/>
			<text x="7.34" y="381.67" class="st2" v:langID="1033"><v:paragraph v:horizAlign="1"/><v:tabList/>Administration Tab</text>		</g>
		<g id="shape2-4" v:mID="2" v:groupContext="shape" transform="translate(189.787,-18.25)">
			<title>Round Corner Rectangle.13</title>
			<desc>+ Resources</desc>
			<v:userDefs>
				<v:ud v:nameU="CTypeTopLeftSnip" v:prompt="" v:val="VT0(0):5"/>
				<v:ud v:nameU="CTypeTopRightSnip" v:prompt="" v:val="VT0(0):5"/>
				<v:ud v:nameU="CTypeBotLeftSnip" v:prompt="" v:val="VT0(0):5"/>
				<v:ud v:nameU="CTypeBotRightSnip" v:prompt="" v:val="VT0(0):5"/>
				<v:ud v:nameU="CornerLockHoriz" v:prompt="" v:val="VT0(0):5"/>
				<v:ud v:nameU="CornerLockVert" v:prompt="" v:val="VT0(0):5"/>
				<v:ud v:nameU="CornerLockDiag" v:prompt="" v:val="VT0(0):5"/>
				<v:ud v:nameU="TopLeftOffset" v:prompt="" v:val="VT0(0.15):1"/>
				<v:ud v:nameU="TopRightOffset" v:prompt="" v:val="VT0(0.15):1"/>
				<v:ud v:nameU="BotLeftOffset" v:prompt="" v:val="VT0(0.15):1"/>
				<v:ud v:nameU="BotRightOffset" v:prompt="" v:val="VT0(0.15):1"/>
				<v:ud v:nameU="visVersion" v:prompt="" v:val="VT0(15):26"/>
			</v:userDefs>
			<v:textBlock v:margins="rect(4,4,4,4)"/>
			<v:textRect cx="54" cy="378.071" width="108" height="72"/>
			<path d="M10.8 414.07 L97.2 414.07 A10.7998 10.7998 -180 0 0 108 403.27 L108 352.87 A10.7998 10.7998 -180 0 0 97.2 342.07
						 L10.8 342.07 A10.7998 10.7998 -180 0 0 0 352.87 L0 403.27 A10.7998 10.7998 -180 0 0 10.8 414.07 Z"
					class="st1"/>
			<text x="24.79" y="381.67" class="st2" v:langID="1033"><v:paragraph v:horizAlign="1"/><v:tabList/>+ Resources</text>		</g>
		<g id="shape3-7" v:mID="3" v:groupContext="shape" transform="translate(77.2161,384.484) rotate(-90)">
			<title>Side line callout</title>
			<desc>You will see all of the resources available for your location</desc>
			<v:userDefs>
				<v:ud v:nameU="visVersion" v:val="VT0(15):26"/>
			</v:userDefs>
			<v:textBlock v:margins="rect(4,4,4,4)"/>
			<v:textRect cx="47.2021" cy="378.071" width="72" height="94.4043" transform="rotate(90)"/>
			<path d="M31.16 245.32 L47.2 342.07" class="st3"/>
			<path d="M0 342.07 L94.4 342.07" class="st3"/>
			<rect v:rectContext="textBkgnd" x="346.071" y="-90.4022" width="60.0881" height="86.4003" transform="rotate(90)"
					class="st4"/>
			<text x="346.07" y="-79.6" transform="rotate(90)" class="st5" v:langID="1033"><v:paragraph/><v:tabList/>You will see <tspan
						x="346.07" dy="1.2em" class="st6">all of the </tspan><tspan x="346.07" dy="1.2em" class="st6">resources </tspan><tspan
						x="346.07" dy="1.2em" class="st6">available for </tspan><tspan x="346.07" dy="1.2em" class="st6">your </tspan><tspan
						x="346.07" dy="1.2em" class="st6">location</tspan></text>		</g>
		<g id="group4-18" transform="translate(18.5,-305.164)" v:mID="4" v:groupContext="group">
			<v:userDefs>
				<v:ud v:nameU="visVersion" v:prompt="" v:val="VT0(17):26"/>
			</v:userDefs>
			<title>Title and Sub-Title Block 4.158</title>
			<g id="shape5-19" v:mID="5" v:groupContext="shape" transform="translate(168.892,5.68434E-14)">
				<title>Sheet.5</title>
				<desc>Create, Edit, Copy</desc>
				<v:textBlock v:margins="rect(4,4,4,4)" v:verticalAlign="0"/>
				<v:textRect cx="56.3955" cy="401.669" width="112.8" height="24.8035"/>
				<rect x="0" y="389.268" width="112.791" height="24.8035" class="st7"/>
				<text x="5.58" y="405.87" class="st8" v:langID="1033"><v:paragraph v:horizAlign="1"/><v:tabList/>Create, Edit, Copy</text>			</g>
			<g id="shape6-22" v:mID="6" v:groupContext="shape" transform="translate(0,-90.4072)">
				<title>Sheet.6</title>
				<v:userDefs>
					<v:ud v:nameU="Width" v:prompt="" v:val="VT0(2.9004906409197):1"/>
					<v:ud v:nameU="Width" v:prompt="" v:val="VT0(6.2579773657732):1"/>
				</v:userDefs>
				<path d="M0 414.07 L450.57 414.07" class="st9"/>
			</g>
			<g id="shape7-25" v:mID="7" v:groupContext="shape">
				<title>Sheet.7</title>
				<path d="M0 414.07 L450.57 414.07" class="st9"/>
			</g>
			<g id="shape8-28" v:mID="8" v:groupContext="shape" transform="translate(0,-23.8035)">
				<title>Sheet.8</title>
				<desc>How to Create a Class</desc>
				<v:textBlock v:margins="rect(4,4,4,4)"/>
				<v:textRect cx="225.287" cy="381.269" width="450.58" height="65.6037"/>
				<rect x="0" y="348.467" width="450.574" height="65.6037" class="st7"/>
				<text x="9.43" y="395.67" class="st10" v:langID="1033"><v:paragraph v:horizAlign="1"/><v:tabList/>How to Create a Class</text>			</g>
		</g>
		<g id="group9-31" transform="translate(630.125,239.955) rotate(90.7021)" v:mID="9" v:groupContext="group">
			<v:userDefs>
				<v:ud v:nameU="Monoline" v:prompt="" v:val="VT0(0):5"/>
				<v:ud v:nameU="msvDisableCustomConnectionPoints" v:prompt="" v:val="VT0(1):5"/>
			</v:userDefs>
			<title>Circle with right arrow.18</title>
			<g id="shape10-32" v:mID="10" v:groupContext="shape" transform="translate(57.6,5.68434E-14) scale(-1,1)">
				<title>Sheet.10</title>
				<v:userDefs>
					<v:ud v:nameU="msvDisableCustomConnectionPoints" v:prompt="" v:val="VT0(1):5"/>
				</v:userDefs>
				<path d="M4.24 387.24 A22.5979 22.5979 0 1 1 26.84 409.83 A22.5979 22.5979 0 0 1 4.24 387.24 ZM0 387.24 A26.835 26.835
							 -180 1 0 26.84 360.4 A26.835 26.835 -180 0 0 -0 387.24 ZM43.08 387.24 A2.11856 2.11856 -180 0 0 40.96
							 385.12 L17.82 385.12 L24.1 378.85 A2.11856 2.11856 -180 0 0 21.1 375.85 L11.21 385.74 A2.11856 2.11856
							 -180 0 0 11.21 388.73 L21.1 398.62 A2.11856 2.11856 -180 0 0 24.1 395.63 L17.82 389.35 L40.96 389.35
							 A2.11856 2.11856 -180 0 0 43.08 387.24 Z" class="st11"/>
			</g>
			<g id="shape11-34" v:mID="11" v:groupContext="shape" transform="translate(-2.8777E-13,-2.11856)">
				<title>Sheet.11</title>
				<v:userDefs>
					<v:ud v:nameU="msvDisableCustomConnectionPoints" v:prompt="" v:val="VT0(1):5"/>
				</v:userDefs>
			</g>
		</g>
	</g>
</svg>
