<?xml version="1.0" encoding="UTF-8" standalone="no"?>
<!DOCTYPE svg PUBLIC "-//W3C//DTD SVG 1.1//EN" "http://www.w3.org/Graphics/SVG/1.1/DTD/svg11.dtd">
<!-- Generated by Microsoft Visio, SVG Export nc6.svg NC6 -->
<svg xmlns="http://www.w3.org/2000/svg" xmlns:xlink="http://www.w3.org/1999/xlink" xmlns:ev="http://www.w3.org/2001/xml-events"
		width="10.5191in" height="5.10393in" viewBox="0 0 757.374 367.483" xml:space="preserve" color-interpolation-filters="sRGB"
		class="st14">
	<title>Flowchart Template</title>
	<desc>Create flowcharts, top-down diagrams, information tracking diagrams, process planning diagrams, and structure prediction diagrams</desc>

	<style type="text/css">
	<![CDATA[
		.st1 {fill:#78a2a3;stroke:#cdcdcd;stroke-width:0.25}
		.st2 {fill:#ffffff;font-family:Corbel;font-size:1.00001em}
		.st3 {fill:#ffffff;stroke:#cdcdcd;stroke-width:0.25}
		.st4 {fill:#486768;font-family:Corbel;font-size:1.00001em}
		.st5 {fill:#628d8e;stroke:#cdcdcd;stroke-width:0.25}
		.st6 {font-size:1em}
		.st7 {marker-end:url(#mrkr42-32);stroke:#486768;stroke-linecap:round;stroke-linejoin:round;stroke-width:1}
		.st8 {fill:#486768;fill-opacity:1;stroke:#486768;stroke-opacity:1;stroke-width:0.28409090909091}
		.st9 {fill:#3e595a;font-family:Corbel;font-size:1.00001em}
		.st10 {font-size:1em;text-decoration:underline}
		.st11 {fill:#486768;stroke:#c8c8c8;stroke-linecap:butt;stroke-width:0.25}
		.st12 {fill:#3e595a;stroke:#32494a;stroke-width:0.75}
		.st13 {fill:#32494a;font-family:Corbel;font-size:1.00001em}
		.st14 {fill:none;fill-rule:evenodd;font-size:12px;overflow:visible;stroke-linecap:square;stroke-miterlimit:3}
	]]>
	</style>

	<defs id="Markers">
		<g id="lend42">
			<path
					d="M 0 0.75 C -0.414214 0.75 -0.75 0.414214 -0.75 0 -0.75 -0.414214 -0.414214 -0.75 0 -0.75 0.414214 -0.75 0.75 -0.414214 0.75 0 0.75 0.414214 0.414214 0.75 0 0.75 Z "
					style="stroke:none"/>
		</g>
		<marker id="mrkr42-32" class="st8" refX="-2.64" orient="auto" markerUnits="strokeWidth" overflow="visible">
			<use xlink:href="#lend42" transform="scale(-3.52,-3.52) "/>
		</marker>
	</defs>
	<g>
		<title>NC6</title>
		<g id="group2-1" transform="translate(18,-18)">
			<title>Stepped Process.2</title>
			<g id="group3-2" transform="translate(44.7955,-44.9008)">
				<title>Step Process</title>
				<g id="shape4-3" transform="translate(0,-1.59518E-07)">
					<title>Sheet.4</title>
					<desc>2</desc>
					<path d="M32 367.48 L0 367.48 L12.4 322.61 L44.4 322.61 L32 367.48 Z" class="st1"/>
					<text x="19.14" y="348.64" class="st2">2</text>				</g>
				<g id="shape5-6" transform="translate(32.0003,0)">
					<title>Sheet.5</title>
					<desc>Enter Zip Code</desc>
					<path d="M154.81 367.48 L0 367.48 L12.4 322.61 L167.21 322.61 L154.81 367.48 Z" class="st3"/>
					<text x="46.63" y="348.64" class="st4">Enter Zip Code</text>				</g>
			</g>
			<g id="group6-9" transform="translate(89.642,-89.7982)">
				<title>Sheet.6</title>
				<g id="shape7-10" transform="translate(0,-1.59518E-07)">
					<title>Sheet.7</title>
					<desc>1</desc>
					<path d="M32 367.48 L0 367.48 L12.4 322.61 L44.4 322.61 L32 367.48 Z" class="st5"/>
					<text x="19.51" y="348.64" class="st2">1</text>				</g>
				<g id="shape8-13" transform="translate(32.0003,0)">
					<title>Sheet.8</title>
					<desc>Enter Address and Apt # (if necessary)</desc>
					<path d="M154.81 367.48 L0 367.48 L12.4 322.61 L167.21 322.61 L154.81 367.48 Z" class="st3"/>
					<text x="16.54" y="341.44" class="st4">Enter Address and Apt # (if <tspan x="57.36" dy="1.2em" class="st6">necessary)</tspan></text>				</g>
			</g>
			<g id="group9-17">
				<title>Sheet.9</title>
			</g>
		</g>
		<g id="group10-18" transform="translate(539.915,-107.798)">
			<title>Process Step.12</title>
			<g id="shape11-19" transform="translate(0,-1.59518E-07)">
				<title>Sheet.11</title>
				<desc>1</desc>
				<path d="M32 367.48 L0 367.48 L12.4 322.61 L44.4 322.61 L32 367.48 Z" class="st5"/>
				<text x="19.51" y="348.64" class="st2">1</text>			</g>
			<g id="shape12-22" transform="translate(32.0003,0)">
				<title>Sheet.12</title>
				<desc>Enter Address in Google Lookup</desc>
				<path d="M154.81 367.48 L0 367.48 L12.4 322.61 L167.21 322.61 L154.81 367.48 Z" class="st3"/>
				<text x="23.84" y="341.44" class="st4">Enter Address in Google <tspan x="64.87" dy="1.2em" class="st6">Lookup</tspan></text>			</g>
		</g>
		<g id="shape13-26" transform="translate(274.989,190.308) rotate(-90)">
			<title>Simple Horizontal Caption.16</title>
			<desc>If this is an existing client and you want to change the addr...</desc>
			<path d="M86.03 170.08 L83.3 244.37" class="st7"/>
			<text x="260.69" y="-151.6" transform="rotate(90)" class="st9">If this is <tspan class="st10">an existing </tspan><tspan
						x="252.56" dy="1.2em" class="st10">client and you want to </tspan><tspan x="259.27" dy="1.2em" class="st10">change the address </tspan><tspan
						x="262.59" dy="1.2em" class="st10">information for all </tspan><tspan x="265.42" dy="1.2em" class="st10">family members</tspan>, <tspan
						x="255.99" dy="1.2em" class="st6">check the Update All </tspan><tspan x="254" dy="1.2em" class="st6">Family Members box. </tspan><tspan
						x="257.96" dy="1.2em" class="st6">THIS SHOULD NOT </tspan><tspan x="252.48" dy="1.2em" class="st6">BE CHECKED FOR AN </tspan><tspan
						x="258.94" dy="1.2em" class="st6">INCOMING CLIENT </tspan></text>		</g>
		<g id="group14-44" transform="translate(757.09,79.3011) rotate(90.7021)">
			<title>Circle with right arrow.18</title>
			<g id="shape15-45" transform="translate(57.6,0) scale(-1,1)">
				<title>Sheet.15</title>
				<path d="M4.24 340.65 A22.5979 22.5979 0 1 1 26.84 363.25 A22.5979 22.5979 0 0 1 4.24 340.65 ZM0 340.65 A26.835 26.835
							 -180 1 0 26.84 313.81 A26.835 26.835 -180 0 0 -0 340.65 ZM43.08 340.65 A2.11856 2.11856 -180 0 0 40.96
							 338.53 L17.82 338.53 L24.1 332.26 A2.11856 2.11856 -180 0 0 21.1 329.26 L11.21 339.15 A2.11856 2.11856
							 -180 0 0 11.21 342.15 L21.1 352.03 A2.11856 2.11856 -180 0 0 24.1 349.04 L17.82 342.77 L40.96 342.77
							 A2.11856 2.11856 -180 0 0 43.08 340.65 Z" class="st11"/>
			</g>
			<g id="shape16-47" transform="translate(-2.8777E-13,-2.11856)">
				<title>Sheet.16</title>
			</g>
		</g>
		<g id="shape17-49" transform="translate(381.181,-94.2299)">
			<title>Left-Right Arrow Block.21</title>
			<desc>Choose</desc>
			<path d="M0 331.48 L14.4 345.88 L14.4 338.68 L21.6 338.68 L21.6 367.48 L50.4 367.48 L50.4 338.68 L57.6 338.68 L57.6 345.88
						 L72 331.48 L57.6 317.08 L57.6 324.28 L50.4 324.28 L50.4 295.48 L21.6 295.48 L21.6 324.28 L14.4 324.28 L14.4
						 317.08 L0 331.48 Z" class="st12"/>
			<text x="17.46" y="385.48" class="st13">Choose</text>		</g>
		<g id="shape19-52" transform="translate(-160.628,183.383) rotate(-90)">
			<title>Simple Horizontal Caption.48</title>
			<desc>When using either method, the system will fill in the entire ...</desc>
			<path d="M2.71 561.47 L67.95 369.98" class="st7"/>
			<text x="251.01" y="-122.8" transform="rotate(90)" class="st9">When using either <tspan x="251.01" dy="1.2em"
						class="st6">method, the system </tspan><tspan x="251.01" dy="1.2em" class="st6">will fill in the entire </tspan><tspan
						x="251.01" dy="1.2em" class="st6">address.  This </tspan><tspan x="251.01" dy="1.2em" class="st6">information can be </tspan><tspan
						x="251.01" dy="1.2em" class="st6">changed manually.   </tspan><tspan x="251.01" dy="1.2em" class="st6">THIS SHOULD BE </tspan><tspan
						x="251.01" dy="1.2em" class="st6">DONE IN RARE </tspan><tspan x="251.01" dy="1.2em" class="st6">CIRCUMSTANCEES</tspan></text>		</g>
	</g>
</svg>
