<?xml version="1.0" encoding="UTF-8" standalone="no"?>
<!DOCTYPE svg PUBLIC "-//W3C//DTD SVG 1.1//EN" "http://www.w3.org/Graphics/SVG/1.1/DTD/svg11.dtd">
<!-- Generated by Microsoft Visio, SVG Export nc8.svg NC8 -->
<svg xmlns="http://www.w3.org/2000/svg" xmlns:xlink="http://www.w3.org/1999/xlink" xmlns:ev="http://www.w3.org/2001/xml-events"
		width="9.78885in" height="4.25128in" viewBox="0 0 704.797 306.092" xml:space="preserve" color-interpolation-filters="sRGB"
		class="st13">
	<title>Flowchart Template</title>
	<desc>Create flowcharts, top-down diagrams, information tracking diagrams, process planning diagrams, and structure prediction diagrams</desc>

	<style type="text/css">
	<![CDATA[
		.st1 {fill:#78a2a3;stroke:#cdcdcd;stroke-width:0.25}
		.st2 {fill:#ffffff;font-family:Corbel;font-size:1.00001em}
		.st3 {fill:#ffffff;stroke:#cdcdcd;stroke-width:0.25}
		.st4 {fill:#486768;font-family:Corbel;font-size:1.00001em}
		.st5 {font-size:1em}
		.st6 {fill:#628d8e;stroke:#cdcdcd;stroke-width:0.25}
		.st7 {fill:none;stroke:none;stroke-linecap:round;stroke-linejoin:round;stroke-width:0.75}
		.st8 {fill:#a5a5a5;font-family:Corbel;font-size:1.00001em}
		.st9 {fill:none}
		.st10 {stroke:#7f7f7f;stroke-linecap:round;stroke-linejoin:round;stroke-width:1}
		.st11 {marker-start:url(#mrkr42-63);stroke:#7f7f7f;stroke-linecap:round;stroke-linejoin:round;stroke-width:1}
		.st12 {fill:#7f7f7f;fill-opacity:1;stroke:#7f7f7f;stroke-opacity:1;stroke-width:0.28409090909091}
		.st13 {fill:none;fill-rule:evenodd;font-size:12px;overflow:visible;stroke-linecap:square;stroke-miterlimit:3}
	]]>
	</style>

	<defs id="Markers">
		<g id="lend42">
			<path
					d="M 0 0.75 C -0.414214 0.75 -0.75 0.414214 -0.75 0 -0.75 -0.414214 -0.414214 -0.75 0 -0.75 0.414214 -0.75 0.75 -0.414214 0.75 0 0.75 0.414214 0.414214 0.75 0 0.75 Z "
					style="stroke:none"/>
		</g>
		<marker id="mrkr42-63" class="st12" refX="2.28" orient="auto" markerUnits="strokeWidth" overflow="visible">
			<use xlink:href="#lend42" transform="scale(3.52) "/>
		</marker>
	</defs>
	<g>
		<title>NC8</title>
		<g id="group1-1" transform="translate(18.25,-18.25)">
			<title>Sheet.1</title>
			<g id="group2-2" transform="translate(134.95,-134.669)">
				<title>Stepped Process.63</title>
				<g id="group3-3" transform="translate(44.7955,-44.9008)">
					<title>Step Process</title>
					<g id="shape4-4" transform="translate(0,-1.59518E-07)">
						<title>Sheet.4</title>
						<desc>2</desc>
						<path d="M32 306.09 L0 306.09 L12.4 261.21 L44.4 261.21 L32 306.09 Z" class="st1"/>
						<text x="19.14" y="287.25" class="st2">2</text>					</g>
					<g id="shape5-7" transform="translate(32.0003,5.68434E-14)">
						<title>Sheet.5</title>
						<desc>Choose OK to Contact by Phone</desc>
						<path d="M154.81 306.09 L0 306.09 L12.4 261.21 L167.21 261.21 L154.81 306.09 Z" class="st3"/>
						<text x="21.24" y="280.05" class="st4">Choose OK to Contact by <tspan x="67.64" dy="1.2em" class="st5">Phone</tspan></text>					</g>
				</g>
				<g id="group6-11" transform="translate(89.642,-89.7982)">
					<title>Sheet.6</title>
					<g id="shape7-12" transform="translate(0,-1.59518E-07)">
						<title>Sheet.7</title>
						<desc>1</desc>
						<path d="M32 306.09 L0 306.09 L12.4 261.21 L44.4 261.21 L32 306.09 Z" class="st6"/>
						<text x="19.51" y="287.25" class="st2">1</text>					</g>
					<g id="shape8-15" transform="translate(32.0003,5.68434E-14)">
						<title>Sheet.8</title>
						<desc>Enter Cell Phone Number</desc>
						<path d="M154.81 306.09 L0 306.09 L12.4 261.21 L167.21 261.21 L154.81 306.09 Z" class="st3"/>
						<text x="20.72" y="287.25" class="st4">Enter Cell Phone Number</text>					</g>
				</g>
			</g>
			<g id="group9-18" transform="translate(134.951,-134.669)">
				<title>Process Step.73</title>
				<g id="shape10-19" transform="translate(0,-1.59518E-07)">
					<title>Sheet.10</title>
					<desc>3</desc>
					<path d="M32 306.09 L0 306.09 L12.4 261.21 L44.4 261.21 L32 306.09 Z" class="st6"/>
					<text x="19.48" y="287.25" class="st2">3</text>				</g>
				<g id="shape11-22" transform="translate(32.0003,5.68434E-14)">
					<title>Sheet.11</title>
					<desc>Choose OK to Contact by Phone</desc>
					<path d="M154.81 306.09 L0 306.09 L12.4 261.21 L167.21 261.21 L154.81 306.09 Z" class="st3"/>
					<text x="21.24" y="280.05" class="st4">Choose OK to Contact by <tspan x="67.64" dy="1.2em" class="st5">Phone</tspan></text>				</g>
			</g>
			<g id="group12-26">
				<title>Stepped Process.76</title>
				<g id="group13-27" transform="translate(44.7955,-44.9008)">
					<title>Step Process</title>
					<g id="shape14-28" transform="translate(0,-1.59518E-07)">
						<title>Sheet.14</title>
						<desc>5</desc>
						<path d="M32 306.09 L0 306.09 L12.4 261.21 L44.4 261.21 L32 306.09 Z" class="st1"/>
						<text x="19.32" y="287.25" class="st2">5</text>					</g>
					<g id="shape15-31" transform="translate(32.0003,5.68434E-14)">
						<title>Sheet.15</title>
						<desc>Enter Work Phone</desc>
						<path d="M154.81 306.09 L0 306.09 L12.4 261.21 L167.21 261.21 L154.81 306.09 Z" class="st3"/>
						<text x="38.27" y="287.25" class="st4">Enter Work Phone</text>					</g>
				</g>
				<g id="group16-34" transform="translate(89.642,-89.7982)">
					<title>Sheet.16</title>
					<g id="shape17-35" transform="translate(0,-1.59518E-07)">
						<title>Sheet.17</title>
						<desc>4</desc>
						<path d="M32 306.09 L0 306.09 L12.4 261.21 L44.4 261.21 L32 306.09 Z" class="st6"/>
						<text x="19.1" y="287.25" class="st2">4</text>					</g>
					<g id="shape18-38" transform="translate(32.0003,5.68434E-14)">
						<title>Sheet.18</title>
						<desc>Enter Home Phone</desc>
						<path d="M154.81 306.09 L0 306.09 L12.4 261.21 L167.21 261.21 L154.81 306.09 Z" class="st3"/>
						<text x="36.53" y="287.25" class="st4">Enter Home Phone</text>					</g>
				</g>
				<g id="group19-41">
					<title>Sheet.19</title>
					<g id="shape20-42" transform="translate(0,-1.59518E-07)">
						<title>Sheet.20</title>
						<desc>6</desc>
						<path d="M32 306.09 L0 306.09 L12.4 261.21 L44.4 261.21 L32 306.09 Z" class="st6"/>
						<text x="19.06" y="287.25" class="st2">6</text>					</g>
					<g id="shape21-45" transform="translate(32.0003,5.68434E-14)">
						<title>Sheet.21</title>
						<desc>Enter (twice) Email Address</desc>
						<path d="M154.81 306.09 L0 306.09 L12.4 261.21 L167.21 261.21 L154.81 306.09 Z" class="st3"/>
						<text x="36.69" y="280.05" class="st4">Enter (twice) Email <tspan x="63.52" dy="1.2em" class="st5">Address</tspan></text>					</g>
				</g>
			</g>
		</g>
		<g id="group22-49" transform="translate(523.84,-207.526)">
			<title>Brace Callout.82</title>
			<g id="shape23-50" transform="translate(21.8015,-14.4313)">
				<title>Sheet.23</title>
				<desc>Cell Phone Number and the two OK to Contact fields are required</desc>
				<rect x="0" y="254.888" width="140.781" height="51.2039" class="st7"/>
				<text x="4" y="269.69" class="st8">Cell Phone Number and <tspan x="4" dy="1.2em" class="st5">the two OK to Contact </tspan><tspan
							x="4" dy="1.2em" class="st5">fields are required</tspan></text>			</g>
			<g id="shape24-55" transform="translate(0,0.738375)">
				<title>Sheet.24</title>
				<path d="M21.36 225.29 C11.08 226.09 6.56 232.6 7.15 240.41 C7.56 245.66 10.26 251.48 9.34 257.08 C8.5 262.18 4.65
							 267.09 0 266.42 L21.36 225.29 ZM21.8 306.09 C8.96 306.26 6.79 299.56 7.89 291.83 C8.63 286.63 10.84
							 280.97 9.76 275.58 C8.78 270.69 5.09 266.02 0.48 266.83 L21.8 306.09 Z" class="st9"/>
				<path d="M21.36 225.29 C11.08 226.09 6.56 232.6 7.15 240.41 C7.56 245.66 10.26 251.48 9.34 257.08 C8.5 262.18 4.65
							 267.09 0 266.42M21.8 306.09 C8.96 306.26 6.79 299.56 7.89 291.83 C8.63 286.63 10.84 280.97 9.76 275.58
							 C8.78 270.69 5.09 266.02 0.48 266.83" class="st10"/>
			</g>
			<g id="shape25-58" transform="translate(-217.799,37.052) rotate(-28.2114)">
				<title>Sheet.25</title>
				<path d="M2.28 306.09 L2.64 306.09 L82.96 306.09" class="st11"/>
			</g>
			<g id="shape26-64" transform="translate(21.8024,-50.4656)">
				<title>Sheet.26</title>
				<rect x="0" y="276.492" width="8" height="29.6" class="st7"/>
			</g>
		</g>
		<g id="group27-66" transform="translate(346.972,-35.8351)">
			<title>Brace Callout.101</title>
			<g id="shape28-67" transform="translate(18.2814,4.1225)">
				<title>Sheet.28</title>
				<desc>The Email address is necessary if the client will enroll in c...</desc>
				<rect x="0" y="226.088" width="118.05" height="80.0041" class="st7"/>
				<text x="4" y="240.89" class="st8">The Email address is <tspan x="4" dy="1.2em" class="st5">necessary if the client </tspan><tspan
							x="4" dy="1.2em" class="st5">will enroll in classes </tspan><tspan x="4" dy="1.2em" class="st5">with email </tspan><tspan
							x="4" dy="1.2em" class="st5">notifications</tspan></text>			</g>
			<g id="shape29-74" transform="translate(0,17.0394)">
				<title>Sheet.29</title>
				<path d="M17.91 196.49 C9.29 197.58 5.5 206.41 6 217 C6.34 224.12 8.6 232.01 7.83 239.61 C7.13 246.52 3.9 253.19
							 0 252.28 L17.91 196.49 ZM18.28 306.09 C7.51 306.32 5.7 297.24 6.61 286.75 C7.23 279.7 9.09 272.02 8.18
							 264.71 C7.36 258.07 4.27 251.74 0.4 252.84 L18.28 306.09 Z" class="st9"/>
				<path d="M17.91 196.49 C9.29 197.58 5.5 206.41 6 217 C6.34 224.12 8.6 232.01 7.83 239.61 C7.13 246.52 3.9 253.19
							 0 252.28M18.28 306.09 C7.51 306.32 5.7 297.24 6.61 286.75 C7.23 279.7 9.09 272.02 8.18 264.71 C7.36
							 258.07 4.27 251.74 0.4 252.84" class="st10"/>
			</g>
			<g id="shape30-77" transform="translate(-210.801,15.9798) rotate(-17.7583)">
				<title>Sheet.30</title>
				<path d="M2.28 306.09 L2.64 306.09 L123.32 306.09" class="st11"/>
			</g>
			<g id="shape31-82" transform="translate(18.2821,-62.9648)">
				<title>Sheet.31</title>
				<rect x="0" y="276.492" width="8" height="29.6" class="st7"/>
			</g>
		</g>
	</g>
</svg>
