<?xml version="1.0" encoding="UTF-8" standalone="no"?>
<!DOCTYPE svg PUBLIC "-//W3C//DTD SVG 1.1//EN" "http://www.w3.org/Graphics/SVG/1.1/DTD/svg11.dtd">
<!-- Generated by Microsoft Visio, SVG Export Reserve3.svg Reserve3 -->
<svg xmlns="http://www.w3.org/2000/svg" xmlns:xlink="http://www.w3.org/1999/xlink" xmlns:ev="http://www.w3.org/2001/xml-events"
		xmlns:v="http://schemas.microsoft.com/visio/2003/SVGExtensions/" width="6.98443in" height="5.54277in"
		viewBox="0 0 502.879 399.079" xml:space="preserve" color-interpolation-filters="sRGB" class="st9">
	<v:documentProperties v:langID="1033" v:viewMarkup="false">
		<v:userDefs>
			<v:ud v:nameU="msvSubprocessMaster" v:prompt="" v:val="VT4(Rectangle)"/>
			<v:ud v:nameU="msvNoAutoConnect" v:val="VT0(1):26"/>
		</v:userDefs>
	</v:documentProperties>

	<style type="text/css">
	<![CDATA[
		.st1 {fill:#156082;stroke:#0d4964;stroke-width:0.25}
		.st2 {fill:#feffff;font-family:Calibri;font-size:1.00001em}
		.st3 {font-size:1em}
		.st4 {fill:none;stroke:none;stroke-width:0.25}
		.st5 {fill:#3f3f3f;font-family:Calibri;font-size:1.16666em}
		.st6 {stroke:#d8d8d8;stroke-linecap:round;stroke-linejoin:round;stroke-width:1}
		.st7 {fill:#3f3f3f;font-family:Calibri;font-size:4.00001em;font-weight:bold}
		.st8 {fill:#156082;stroke:#0d4964;stroke-linecap:butt;stroke-width:0.25}
		.st9 {fill:none;fill-rule:evenodd;font-size:12px;overflow:visible;stroke-linecap:square;stroke-miterlimit:3}
	]]>
	</style>

	<g v:mID="14" v:index="12" v:groupContext="foregroundPage">
		<v:userDefs>
			<v:ud v:nameU="msvThemeOrder" v:val="VT0(0):26"/>
		</v:userDefs>
		<title>Reserve3</title>
		<v:pageProperties v:drawingScale="1" v:pageScale="1" v:drawingUnits="0" v:shadowOffsetX="9" v:shadowOffsetY="-9"/>
		<g id="shape1-1" v:mID="1" v:groupContext="shape" transform="translate(189.787,-191.172)">
			<title>Round Corner Rectangle.35</title>
			<desc>Case Management Tab</desc>
			<v:userDefs>
				<v:ud v:nameU="CTypeTopLeftSnip" v:prompt="" v:val="VT0(0):5"/>
				<v:ud v:nameU="CTypeTopRightSnip" v:prompt="" v:val="VT0(0):5"/>
				<v:ud v:nameU="CTypeBotLeftSnip" v:prompt="" v:val="VT0(0):5"/>
				<v:ud v:nameU="CTypeBotRightSnip" v:prompt="" v:val="VT0(0):5"/>
				<v:ud v:nameU="CornerLockHoriz" v:prompt="" v:val="VT0(0):5"/>
				<v:ud v:nameU="CornerLockVert" v:prompt="" v:val="VT0(0):5"/>
				<v:ud v:nameU="CornerLockDiag" v:prompt="" v:val="VT0(0):5"/>
				<v:ud v:nameU="TopLeftOffset" v:prompt="" v:val="VT0(0.15):1"/>
				<v:ud v:nameU="TopRightOffset" v:prompt="" v:val="VT0(0.15):1"/>
				<v:ud v:nameU="BotLeftOffset" v:prompt="" v:val="VT0(0.15):1"/>
				<v:ud v:nameU="BotRightOffset" v:prompt="" v:val="VT0(0.15):1"/>
				<v:ud v:nameU="visVersion" v:prompt="" v:val="VT0(15):26"/>
			</v:userDefs>
			<v:textBlock v:margins="rect(4,4,4,4)"/>
			<v:textRect cx="54" cy="363.079" width="108" height="72"/>
			<path d="M10.8 399.08 L97.2 399.08 A10.7998 10.7998 -180 0 0 108 388.28 L108 337.88 A10.7998 10.7998 -180 0 0 97.2 327.08
						 L10.8 327.08 A10.7998 10.7998 -180 0 0 0 337.88 L0 388.28 A10.7998 10.7998 -180 0 0 10.8 399.08 Z"
					class="st1"/>
			<text x="8.46" y="359.48" class="st2" v:langID="1033"><v:paragraph v:horizAlign="1"/><v:tabList/>Case Management <tspan
						x="45.05" dy="1.2em" class="st3">Tab</tspan></text>		</g>
		<g id="group2-5" transform="translate(18.5,-290.172)" v:mID="2" v:groupContext="group">
			<v:userDefs>
				<v:ud v:nameU="visVersion" v:prompt="" v:val="VT0(17):26"/>
			</v:userDefs>
			<title>Title and Sub-Title Block 4.38</title>
			<g id="shape3-6" v:mID="3" v:groupContext="shape" transform="translate(188.069,5.68434E-14)">
				<title>Sheet.3</title>
				<desc>Two Methods</desc>
				<v:textBlock v:margins="rect(4,4,4,4)" v:verticalAlign="0"/>
				<v:textRect cx="44.8701" cy="386.677" width="89.75" height="24.8035"/>
				<rect x="0" y="374.276" width="89.7402" height="24.8035" class="st4"/>
				<text x="5.58" y="390.88" class="st5" v:langID="1033"><v:paragraph v:horizAlign="1"/><v:tabList/>Two Methods</text>			</g>
			<g id="shape4-9" v:mID="4" v:groupContext="shape" transform="translate(0,-90.4072)">
				<title>Sheet.4</title>
				<v:userDefs>
					<v:ud v:nameU="Width" v:prompt="" v:val="VT0(2.9004906409197):1"/>
					<v:ud v:nameU="Width" v:prompt="" v:val="VT0(6.4705437415056):1"/>
				</v:userDefs>
				<path d="M0 399.08 L465.88 399.08" class="st6"/>
			</g>
			<g id="shape5-12" v:mID="5" v:groupContext="shape">
				<title>Sheet.5</title>
				<path d="M0 399.08 L465.88 399.08" class="st6"/>
			</g>
			<g id="shape6-15" v:mID="6" v:groupContext="shape" transform="translate(0,-23.8035)">
				<title>Sheet.6</title>
				<desc>How to Reserve a Seat</desc>
				<v:textBlock v:margins="rect(4,4,4,4)"/>
				<v:textRect cx="232.94" cy="366.277" width="465.88" height="65.6037"/>
				<rect x="0" y="333.475" width="465.879" height="65.6037" class="st4"/>
				<text x="9.43" y="380.68" class="st7" v:langID="1033"><v:paragraph v:horizAlign="1"/><v:tabList/>How to Reserve a Seat</text>			</g>
		</g>
		<g id="group7-18" transform="translate(615.134,239.771) rotate(90.7021)" v:mID="7" v:groupContext="group">
			<v:userDefs>
				<v:ud v:nameU="Monoline" v:prompt="" v:val="VT0(0):5"/>
				<v:ud v:nameU="msvDisableCustomConnectionPoints" v:prompt="" v:val="VT0(1):5"/>
			</v:userDefs>
			<title>Circle with right arrow.43</title>
			<g id="shape8-19" v:mID="8" v:groupContext="shape" transform="translate(57.6,5.68434E-14) scale(-1,1)">
				<title>Sheet.8</title>
				<v:userDefs>
					<v:ud v:nameU="msvDisableCustomConnectionPoints" v:prompt="" v:val="VT0(1):5"/>
				</v:userDefs>
				<path d="M4.24 372.24 A22.5979 22.5979 0 1 1 26.84 394.84 A22.5979 22.5979 0 0 1 4.24 372.24 ZM0 372.24 A26.835 26.835
							 -180 1 0 26.84 345.41 A26.835 26.835 -180 0 0 -0 372.24 ZM43.08 372.24 A2.11856 2.11856 -180 0 0 40.96
							 370.13 L17.82 370.13 L24.1 363.85 A2.11856 2.11856 -180 0 0 21.1 360.86 L11.21 370.75 A2.11856 2.11856
							 -180 0 0 11.21 373.74 L21.1 383.63 A2.11856 2.11856 -180 0 0 24.1 380.63 L17.82 374.36 L40.96 374.36
							 A2.11856 2.11856 -180 0 0 43.08 372.24 Z" class="st8"/>
			</g>
			<g id="shape9-21" v:mID="9" v:groupContext="shape" transform="translate(-2.8777E-13,-2.11856)">
				<title>Sheet.9</title>
				<v:userDefs>
					<v:ud v:nameU="msvDisableCustomConnectionPoints" v:prompt="" v:val="VT0(1):5"/>
				</v:userDefs>
			</g>
		</g>
		<g id="group10-23" transform="translate(323.906,-18.25)" v:mID="10" v:groupContext="group">
			<v:userDefs>
				<v:ud v:nameU="Monoline" v:prompt="" v:val="VT0(0):5"/>
				<v:ud v:nameU="msvDisableCustomConnectionPoints" v:prompt="" v:val="VT0(1):5"/>
			</v:userDefs>
			<title>Circle with right arrow.46</title>
			<g id="shape11-24" v:mID="11" v:groupContext="shape" transform="translate(57.6,5.68434E-14) scale(-1,1)">
				<title>Sheet.11</title>
				<v:userDefs>
					<v:ud v:nameU="msvDisableCustomConnectionPoints" v:prompt="" v:val="VT0(1):5"/>
				</v:userDefs>
				<path d="M4.24 372.24 A22.5979 22.5979 0 1 1 26.84 394.84 A22.5979 22.5979 0 0 1 4.24 372.24 ZM0 372.24 A26.835 26.835
							 -180 1 0 26.84 345.41 A26.835 26.835 -180 0 0 -0 372.24 ZM43.08 372.24 A2.11856 2.11856 -180 0 0 40.96
							 370.13 L17.82 370.13 L24.1 363.85 A2.11856 2.11856 -180 0 0 21.1 360.86 L11.21 370.75 A2.11856 2.11856
							 -180 0 0 11.21 373.74 L21.1 383.63 A2.11856 2.11856 -180 0 0 24.1 380.63 L17.82 374.36 L40.96 374.36
							 A2.11856 2.11856 -180 0 0 43.08 372.24 Z" class="st8"/>
			</g>
			<g id="shape12-26" v:mID="12" v:groupContext="shape" transform="translate(-2.8777E-13,-2.11856)">
				<title>Sheet.12</title>
				<v:userDefs>
					<v:ud v:nameU="msvDisableCustomConnectionPoints" v:prompt="" v:val="VT0(1):5"/>
				</v:userDefs>
			</g>
		</g>
	</g>
</svg>
